<svg width="24" height="24" viewBox="0 0 24 24" fill="none" xmlns="http://www.w3.org/2000/svg">
<rect width="24" height="24" rx="6" fill="white"/>
<g filter="url(#filter0_d_1_36)">
<path fill-rule="evenodd" clip-rule="evenodd" d="M13.8994 3.18505C13.9431 3.19628 14.0812 3.23072 14.2062 3.26155C15.6427 3.61587 17.0729 4.39672 18.1673 5.42417C18.8715 6.08528 19.5604 6.9947 20.006 7.85149C20.7008 9.18735 21.0407 10.6673 21.0187 12.2616C21.0166 12.4167 20.9782 12.7767 20.915 13.2343C20.8518 13.6918 20.7911 14.0487 20.7511 14.1986C20.282 15.9566 19.422 17.4073 18.1349 18.6118C17.8166 18.9095 17.073 19.4725 16.7 19.6979C15.1913 20.6099 13.5613 21.0441 11.7414 21.0189C11.4102 21.0143 10.1238 20.8366 9.80378 20.7512C8.04523 20.2821 6.59396 19.4222 5.389 18.1354C5.09111 17.8172 4.52795 17.0738 4.30236 16.7009C3.38998 15.1926 2.95547 13.563 2.98056 11.7437C2.98269 11.5886 3.02109 11.2286 3.08429 10.7711C3.14749 10.3136 3.20813 9.95665 3.24814 9.80675C3.71722 8.04879 4.57726 6.59805 5.86439 5.39358C6.18262 5.09581 6.92625 4.5329 7.29924 4.30741C8.77958 3.41259 10.3614 2.98144 12.1523 2.98463C12.3978 2.98506 13.7049 3.13501 13.8994 3.18505ZM11.3727 4.30081C9.88216 4.3478 8.44728 4.86329 7.21391 5.79482C6.50544 6.3299 5.98452 6.87442 5.48318 7.60398C4.79675 8.60284 4.37161 9.70888 4.20192 10.9372C4.02587 12.2117 4.14268 13.3715 4.57152 14.6072C4.98132 15.788 5.74261 16.9362 6.67622 17.7815C8.11932 19.088 9.97178 19.7965 11.845 19.7582C13.0614 19.7333 14.2315 19.3401 14.5993 18.8326C14.7229 18.662 14.7586 18.5215 14.7266 18.3325C14.681 18.0637 14.567 17.8692 13.9281 16.9701C13.1861 15.9258 12.7855 15.1673 12.4614 14.1932C12.2038 13.419 12.09 12.8519 12.0302 12.0442C11.8948 10.2169 12.2283 8.71403 13.1816 6.8551C13.6581 5.92587 13.7664 5.67955 13.7976 5.45325C13.8586 5.01233 13.5392 4.68444 12.8404 4.47024C12.542 4.37877 11.7606 4.28857 11.3727 4.30081ZM15.4428 5.96652C14.3636 6.1701 13.2555 7.38532 12.6606 9.01766C12.4641 9.55692 12.415 9.76736 12.3128 10.5067C12.2132 11.2277 12.2029 11.4343 12.2387 11.987C12.3014 12.9553 12.6437 14.086 13.147 14.9879C13.9316 16.3936 15.1361 17.3923 16.1556 17.4823C16.8757 17.5459 17.5683 17.1983 18.2579 16.4274C18.8978 15.7119 19.3907 14.7349 19.6608 13.6466C19.7656 13.2243 19.8722 12.3626 19.872 11.9387C19.8712 9.74669 18.7523 7.48546 17.1388 6.41495C16.6991 6.1232 16.3981 6.00596 15.9613 5.95622C15.7084 5.92741 15.6432 5.9287 15.4428 5.96652Z" fill="#171717"/>
<path d="M13.0591 2.94159C12.6803 2.89814 12.2841 2.85997 12.1526 2.85973C10.3397 2.8565 8.73504 3.29321 7.23441 4.2003C6.85397 4.43031 6.10344 4.99881 5.77887 5.30251C4.47418 6.52347 3.60218 7.99497 3.12729 9.7747C3.08497 9.9334 3.02344 10.2981 2.96043 10.7542C2.89742 11.2104 2.85773 11.5782 2.85548 11.7423C2.83013 13.5841 3.27045 15.237 4.19529 16.7659C4.42538 17.1462 4.99378 17.8959 5.29763 18.2205C6.51911 19.525 7.99138 20.3974 9.77175 20.8723C9.94074 20.9174 10.3501 20.9838 10.7513 21.0392C11.1525 21.0946 11.5645 21.1417 11.7394 21.1441C13.5818 21.1697 15.2355 20.7291 16.7649 19.8046C17.1454 19.5745 17.8957 19.007 18.2203 18.7034C19.525 17.4824 20.397 16.0108 20.8719 14.2312C20.9142 14.0726 20.9757 13.7078 21.0387 13.2516C21.1018 12.7955 21.1414 12.4278 21.1437 12.2635C21.166 10.6498 20.8217 9.14912 20.1168 7.79384C19.6646 6.92457 18.9668 6.0037 18.2524 5.33295C17.1427 4.29125 15.6938 3.50021 14.2363 3.14068C14.1112 3.10984 13.9735 3.07498 13.9304 3.06393C13.8733 3.04924 13.7472 3.02961 13.596 3.00885C13.4411 2.98759 13.2506 2.96355 13.0591 2.94159ZM12.1262 4.47089C12.4062 4.50323 12.6663 4.54799 12.8038 4.59012C13.1438 4.69437 13.3755 4.8219 13.5141 4.96429C13.6476 5.10135 13.6987 5.25499 13.6738 5.43588C13.6461 5.6359 13.5516 5.85982 13.0706 6.79779C12.1083 8.67412 11.7687 10.1999 11.9059 12.0531C11.9665 12.8711 12.0823 13.4491 12.3432 14.233C12.672 15.2212 13.0788 15.9907 13.8262 17.0425C14.4718 17.9511 14.5636 18.1194 14.6033 18.3535C14.617 18.4345 14.6157 18.4987 14.6006 18.5582C14.5853 18.6185 14.5536 18.6822 14.498 18.759C14.3375 18.9805 13.9838 19.1952 13.5004 19.3576C13.0228 19.5181 12.439 19.6211 11.8426 19.6333C10.0026 19.6709 8.18054 18.9751 6.76009 17.689L6.58989 17.5295C5.74953 16.7161 5.06716 15.654 4.68949 14.5658C4.26716 13.3486 4.15251 12.2089 4.32573 10.9547C4.49282 9.74514 4.91112 8.65689 5.58627 7.67444C6.07991 6.95614 6.59154 6.42157 7.2892 5.89464C8.50268 4.97814 9.91273 4.47167 11.3764 4.42547C11.5613 4.41963 11.8474 4.4387 12.1262 4.47089ZM15.9468 6.08014C16.3604 6.12724 16.6437 6.23626 17.0702 6.51924C18.6434 7.5633 19.7464 9.78214 19.7473 11.9385C19.7475 12.3519 19.6416 13.2035 19.5392 13.6163C19.2732 14.6881 18.7889 15.6465 18.1647 16.3445C17.4895 17.0992 16.8321 17.4167 16.1664 17.3579C15.6907 17.3158 15.1581 17.0589 14.643 16.6318C14.1294 16.206 13.6413 15.6176 13.2558 14.927C12.761 14.0405 12.4252 12.9277 12.3637 11.9793C12.3285 11.4371 12.3379 11.2385 12.4366 10.5234C12.5379 9.79068 12.5851 9.58905 12.7778 9.06025C13.0703 8.25752 13.4888 7.56015 13.9628 7.04033C14.4378 6.51948 14.9616 6.18475 15.4654 6.08955C15.5639 6.07097 15.6229 6.06298 15.6852 6.06174C15.7488 6.0605 15.8208 6.06579 15.9468 6.08014Z" stroke="#171717" stroke-width="0.25"/>
</g>
<defs>
<filter id="filter0_d_1_36" x="1.72955" y="1.73462" width="20.5402" height="20.5353" filterUnits="userSpaceOnUse" color-interpolation-filters="sRGB">
<feFlood flood-opacity="0" result="BackgroundImageFix"/>
<feColorMatrix in="SourceAlpha" type="matrix" values="0 0 0 0 0 0 0 0 0 0 0 0 0 0 0 0 0 0 127 0" result="hardAlpha"/>
<feOffset/>
<feGaussianBlur stdDeviation="0.5"/>
<feComposite in2="hardAlpha" operator="out"/>
<feColorMatrix type="matrix" values="0 0 0 0 0.0901961 0 0 0 0 0.0901961 0 0 0 0 0.0901961 0 0 0 1 0"/>
<feBlend mode="normal" in2="BackgroundImageFix" result="effect1_dropShadow_1_36"/>
<feBlend mode="normal" in="SourceGraphic" in2="effect1_dropShadow_1_36" result="shape"/>
</filter>
</defs>
</svg>
