<svg width="24" height="24" viewBox="0 0 24 24" fill="none" xmlns="http://www.w3.org/2000/svg">
<path d="M18 0C21.3137 0 24 2.68629 24 6V18C24 21.3137 21.3137 24 18 24H6C2.68629 24 4.55825e-06 21.3137 0 18V6C0 2.68629 2.68629 0 6 0H18ZM21.1592 2.60449C18.0639 -0.490816 11.401 1.15368 6.27734 6.27734C1.15369 11.401 -0.490814 18.0639 2.60449 21.1592C5.69984 24.2544 12.3627 22.6099 17.4863 17.4863C22.6099 12.3627 24.2544 5.69984 21.1592 2.60449Z" fill="white"/>
<path d="M12 6L12.7146 9.27515C12.9412 10.3138 13.7006 11.1549 14.7107 11.4862L16 11.9091L14.7881 12.3066C13.7367 12.6514 12.9605 13.547 12.7686 14.6367L12 19L11.2314 14.6367C11.0395 13.547 10.2633 12.6514 9.21186 12.3066L8 11.9091L9.2893 11.4862C10.2994 11.1549 11.0588 10.3138 11.2854 9.27515L12 6Z" fill="white"/>
</svg>
