<svg width="225" height="60" viewBox="0 0 225 60" fill="none" xmlns="http://www.w3.org/2000/svg">
<g clip-path="url(#clip0_83_22)">
<g clip-path="url(#clip1_83_22)">
<path d="M36.25 36.25C39.7018 36.25 42.5 33.4518 42.5 30C42.5 26.5482 39.7018 23.75 36.25 23.75C32.7982 23.75 30 26.5482 30 30C30 33.4518 32.7982 36.25 36.25 36.25Z" fill="#2AA8FF"/>
<path fill-rule="evenodd" clip-rule="evenodd" d="M15 5C9.47715 5 5 9.47715 5 15V45C5 50.5229 9.47715 55 15 55H45C50.5229 55 55 50.5229 55 45V15C55 9.47715 50.5229 5 45 5H15ZM29.9996 44.9996C38.2839 44.9996 44.9996 38.2839 44.9996 29.9996C44.9996 21.7154 38.2839 14.9996 29.9996 14.9996C21.7154 14.9996 14.9996 21.7154 14.9996 29.9996C14.9996 38.2839 21.7154 44.9996 29.9996 44.9996Z" fill="#2AA8FF"/>
<path fill-rule="evenodd" clip-rule="evenodd" d="M15 0C6.71572 0 0 6.71572 0 15V45C0 53.2843 6.71572 60 15 60H45C53.2843 60 60 53.2843 60 45V15C60 6.71572 53.2843 0 45 0H15ZM15 2.5C8.09644 2.5 2.5 8.09644 2.5 15V45C2.5 51.9035 8.09644 57.5 15 57.5H45C51.9035 57.5 57.5 51.9035 57.5 45V15C57.5 8.09644 51.9035 2.5 45 2.5H15Z" fill="#2AA8FF"/>
</g>
<g clip-path="url(#clip2_83_22)">
<path d="M75 41.8437C75 36.147 79.5482 33.0594 90.2874 31.9356C90.1253 29.5713 88.9408 28.0414 85.9962 28.0414C83.7165 28.0414 81.4424 28.9983 78.8107 30.4836L75.9499 25.2264C79.3974 23.1291 83.2807 21.666 87.5495 21.666C94.4891 21.666 98.3333 25.6159 98.3333 33.905V49.3596H91.768L91.2093 46.578H91.0081C88.7229 48.5751 86.1582 49.9993 83.1074 49.9993C78.1402 49.9938 75 46.3944 75 41.8437ZM90.2874 41.4821V36.7645C84.5658 37.5322 82.6996 39.1622 82.6996 41.215C82.6996 42.9563 83.9064 43.8075 85.8174 43.8075C87.6389 43.7964 88.8625 42.9174 90.2874 41.4821Z" fill="#D2D2D3"/>
<path d="M103.805 22.3314H110.384L110.944 27.056H111.146C113.128 23.4444 116.102 21.6748 118.879 21.6748C119.988 21.6215 121.095 21.8114 122.121 22.2313L120.783 29.1484C119.827 28.8725 118.838 28.7265 117.843 28.7143C115.794 28.7143 113.302 30.0276 111.852 33.7227V49.3933H103.788L103.805 22.3314Z" fill="#D2D2D3"/>
<path d="M123.788 14.1898C123.788 11.7304 125.729 10 128.409 10C131.088 10 133.03 11.7304 133.03 14.1898C133.03 16.6491 131.088 18.374 128.409 18.374C125.729 18.374 123.788 16.6269 123.788 14.1898ZM124.403 22.3579H132.392V49.3939H124.403V22.3579Z" fill="#D2D2D3"/>
<path d="M137.121 41.8437C137.121 36.147 141.644 33.0594 152.311 31.9356C152.15 29.5713 150.973 28.0414 148.043 28.0414C145.784 28.0414 143.526 28.9983 140.912 30.4836L138.07 25.2264C141.489 23.1291 145.346 21.666 149.586 21.666C156.485 21.666 160.303 25.6159 160.303 33.905V49.3596H153.782L153.227 46.578H153.027C150.757 48.5751 148.215 49.9993 145.185 49.9993C140.246 49.9938 137.121 46.3944 137.121 41.8437ZM152.311 41.4821V36.7645C146.628 37.5322 144.774 39.1622 144.774 41.215C144.774 42.9563 145.967 43.8075 147.866 43.8075C149.675 43.7964 150.89 42.9174 152.311 41.4821Z" fill="#D2D2D3"/>
<path d="M165.455 11.0605H173.291V33.0044H173.492L182.075 22.2697H190.786L181.317 33.4342L191.515 49.3771H182.826L176.728 38.7876L173.291 42.6951V49.3938H165.455V11.0605Z" fill="#D2D2D3"/>
<path d="M193.636 14.1898C193.636 11.7304 195.546 10 198.182 10C200.818 10 202.727 11.7304 202.727 14.1898C202.727 16.6491 200.818 18.374 198.182 18.374C195.546 18.374 193.636 16.6269 193.636 14.1898ZM194.242 22.3579H202.1V49.3939H194.242V22.3579Z" fill="#D2D2D3"/>
<path d="M209.125 39.5274V28.6262H205.455V22.6533L209.573 22.3754L210.504 15.1523H217.097V22.3754H223.547V28.6539H217.097V39.433C217.097 42.4944 218.481 43.7223 220.579 43.7223C221.454 43.6938 222.318 43.5211 223.137 43.2112L224.394 49.0452C222.47 49.6824 220.457 50.0051 218.431 50.0008C211.788 50.0008 209.125 45.7837 209.125 39.5274Z" fill="#D2D2D3"/>
</g>
</g>
<defs>
<clipPath id="clip0_83_22">
<rect width="225" height="60" fill="white"/>
</clipPath>
<clipPath id="clip1_83_22">
<rect width="60" height="60" fill="white"/>
</clipPath>
<clipPath id="clip2_83_22">
<rect width="150" height="40" fill="white" transform="translate(75 10)"/>
</clipPath>
</defs>
</svg>
