<svg width="262" height="33" viewBox="0 0 262 33" fill="none" xmlns="http://www.w3.org/2000/svg">
<g clip-path="url(#clip0_83_23)">
<mask id="mask0_83_23" style="mask-type:luminance" maskUnits="userSpaceOnUse" x="0" y="0" width="262" height="33">
<path d="M0 0H262V32.4H0V0Z" fill="white"/>
</mask>
<g mask="url(#mask0_83_23)">
<path fill-rule="evenodd" clip-rule="evenodd" d="M27 0C19.8 0 15.3 3.6 13.5 10.8C16.2 7.2 19.35 5.85 22.95 6.75C25.004 7.263 26.472 8.754 28.097 10.403C30.744 13.09 33.808 16.2 40.5 16.2C47.7 16.2 52.2 12.6 54 5.4C51.3 9 48.15 10.35 44.55 9.45C42.496 8.937 41.028 7.446 39.403 5.797C36.756 3.11 33.692 0 27 0ZM13.5 16.2C6.3 16.2 1.8 19.8 0 27C2.7 23.4 5.85 22.05 9.45 22.95C11.504 23.464 12.972 24.954 14.597 26.603C17.244 29.29 20.308 32.4 27 32.4C34.2 32.4 38.7 28.8 40.5 21.6C37.8 25.2 34.65 26.55 31.05 25.65C28.996 25.137 27.528 23.646 25.903 21.997C23.256 19.31 20.192 16.2 13.5 16.2Z" fill="#38BDF8"/>
<path fill-rule="evenodd" clip-rule="evenodd" d="M80.9961 13.6529H76.2841V22.7729C76.2841 25.2049 77.8801 25.1669 80.9961 25.0149V28.7009C74.6881 29.4609 72.1801 27.7129 72.1801 22.7729V13.6529H68.6841V9.70094H72.1801V4.59694L76.2841 3.38094V9.70094H80.9961V13.6529ZM98.9581 9.70094H103.062V28.7009H98.9581V25.9649C97.5141 27.9789 95.2721 29.1949 92.3081 29.1949C87.1401 29.1949 82.8461 24.8249 82.8461 19.2009C82.8461 13.5389 87.1401 9.20694 92.3081 9.20694C95.2721 9.20694 97.5141 10.4229 98.9581 12.3989V9.70094ZM92.9541 25.2809C96.3741 25.2809 98.9581 22.7349 98.9581 19.2009C98.9581 15.6669 96.3741 13.1209 92.9541 13.1209C89.5341 13.1209 86.9501 15.6669 86.9501 19.2009C86.9501 22.7349 89.5341 25.2809 92.9541 25.2809ZM109.902 6.85094C108.458 6.85094 107.28 5.63494 107.28 4.22894C107.281 3.53395 107.558 2.8678 108.05 2.37636C108.541 1.88493 109.207 1.60826 109.902 1.60694C110.597 1.60826 111.263 1.88493 111.755 2.37636C112.246 2.8678 112.523 3.53395 112.524 4.22894C112.524 5.63494 111.346 6.85094 109.902 6.85094ZM107.85 28.7009V9.70094H111.954V28.7009H107.85ZM116.704 28.7009V0.960938H120.808V28.7009H116.704ZM147.446 9.70094H151.778L145.812 28.7009H141.784L137.832 15.8949L133.842 28.7009H129.814L123.848 9.70094H128.18L131.866 22.8109L135.856 9.70094H139.77L143.722 22.8109L147.446 9.70094ZM156.87 6.85094C155.426 6.85094 154.248 5.63494 154.248 4.22894C154.249 3.53395 154.526 2.8678 155.018 2.37636C155.509 1.88493 156.175 1.60826 156.87 1.60694C157.565 1.60826 158.231 1.88493 158.723 2.37636C159.214 2.8678 159.491 3.53395 159.492 4.22894C159.492 5.63494 158.314 6.85094 156.87 6.85094ZM154.818 28.7009V9.70094H158.922V28.7009H154.818ZM173.666 9.20694C177.922 9.20694 180.962 12.0949 180.962 17.0349V28.7009H176.858V17.4529C176.858 14.5649 175.186 13.0449 172.602 13.0449C169.904 13.0449 167.776 14.6409 167.776 18.5169V28.7009H163.672V9.70094H167.776V12.1329C169.03 10.1569 171.082 9.20694 173.666 9.20694ZM200.418 2.10094H204.522V28.7009H200.418V25.9649C198.974 27.9789 196.732 29.1949 193.768 29.1949C188.6 29.1949 184.306 24.8249 184.306 19.2009C184.306 13.5389 188.6 9.20694 193.768 9.20694C196.732 9.20694 198.974 10.4229 200.418 12.3989V2.10094ZM194.414 25.2809C197.834 25.2809 200.418 22.7349 200.418 19.2009C200.418 15.6669 197.834 13.1209 194.414 13.1209C190.994 13.1209 188.41 15.6669 188.41 19.2009C188.41 22.7349 190.994 25.2809 194.414 25.2809ZM218.278 29.1949C212.54 29.1949 208.246 24.8249 208.246 19.2009C208.246 13.5389 212.54 9.20694 218.278 9.20694C222.002 9.20694 225.232 11.1449 226.752 14.1089L223.218 16.1609C222.382 14.3749 220.52 13.2349 218.24 13.2349C214.896 13.2349 212.35 15.7809 212.35 19.2009C212.35 22.6209 214.896 25.1669 218.24 25.1669C220.52 25.1669 222.382 23.9889 223.294 22.2409L226.828 24.2549C225.232 27.2569 222.002 29.1949 218.278 29.1949ZM233.592 14.9449C233.592 18.4029 243.814 16.3129 243.814 23.3429C243.814 27.1429 240.508 29.1949 236.404 29.1949C232.604 29.1949 229.868 27.4849 228.652 24.7489L232.186 22.6969C232.794 24.4069 234.314 25.4329 236.404 25.4329C238.228 25.4329 239.634 24.8249 239.634 23.3049C239.634 19.9229 229.412 21.8229 229.412 15.0209C229.412 11.4489 232.49 9.20694 236.366 9.20694C239.482 9.20694 242.066 10.6509 243.396 13.1589L239.938 15.0969C239.254 13.6149 237.924 12.9309 236.366 12.9309C234.884 12.9309 233.592 13.5769 233.592 14.9449ZM251.11 14.9449C251.11 18.4029 261.332 16.3129 261.332 23.3429C261.332 27.1429 258.026 29.1949 253.922 29.1949C250.122 29.1949 247.386 27.4849 246.17 24.7489L249.704 22.6969C250.312 24.4069 251.832 25.4329 253.922 25.4329C255.746 25.4329 257.152 24.8249 257.152 23.3049C257.152 19.9229 246.93 21.8229 246.93 15.0209C246.93 11.4489 250.008 9.20694 253.884 9.20694C257 9.20694 259.584 10.6509 260.914 13.1589L257.456 15.0969C256.772 13.6149 255.442 12.9309 253.884 12.9309C252.402 12.9309 251.11 13.5769 251.11 14.9449Z" fill="#0F172A"/>
</g>
</g>
<defs>
<clipPath id="clip0_83_23">
<rect width="262" height="33" fill="white"/>
</clipPath>
</defs>
</svg>
