<svg width="262" height="33" viewBox="0 0 262 33" fill="none" xmlns="http://www.w3.org/2000/svg">
<g clip-path="url(#clip0_83_30)">
<path fill-rule="evenodd" clip-rule="evenodd" d="M27 0C19.8 0 15.3 3.6 13.5 10.8C16.2 7.2 19.35 5.85 22.95 6.75C25.004 7.263 26.472 8.754 28.097 10.403C30.744 13.09 33.808 16.2 40.5 16.2C47.7 16.2 52.2 12.6 54 5.4C51.3 9 48.15 10.35 44.55 9.45C42.496 8.937 41.028 7.446 39.403 5.797C36.756 3.11 33.692 0 27 0ZM13.5 16.2C6.3 16.2 1.8 19.8 0 27C2.7 23.4 5.85 22.05 9.45 22.95C11.504 23.464 12.972 24.954 14.597 26.603C17.244 29.29 20.308 32.4 27 32.4C34.2 32.4 38.7 28.8 40.5 21.6C37.8 25.2 34.65 26.55 31.05 25.65C28.996 25.137 27.528 23.646 25.903 21.997C23.256 19.31 20.192 16.2 13.5 16.2Z" fill="#38BDF8"/>
<path fill-rule="evenodd" clip-rule="evenodd" d="M80.9961 13.653H76.2841V22.773C76.2841 25.205 77.8801 25.167 80.9961 25.015V28.701C74.6881 29.461 72.1801 27.713 72.1801 22.773V13.653H68.6841V9.70094H72.1801V4.59694L76.2841 3.38094V9.70094H80.9961V13.653ZM98.9581 9.70094H103.062V28.701H98.9581V25.965C97.5141 27.979 95.2721 29.195 92.3081 29.195C87.1401 29.195 82.8461 24.825 82.8461 19.201C82.8461 13.539 87.1401 9.20694 92.3081 9.20694C95.2721 9.20694 97.5141 10.423 98.9581 12.399V9.70094ZM92.9541 25.281C96.3741 25.281 98.9581 22.735 98.9581 19.201C98.9581 15.667 96.3741 13.121 92.9541 13.121C89.5341 13.121 86.9501 15.667 86.9501 19.201C86.9501 22.735 89.5341 25.281 92.9541 25.281ZM109.902 6.85094C108.458 6.85094 107.28 5.63494 107.28 4.22894C107.281 3.53395 107.558 2.8678 108.049 2.37637C108.541 1.88493 109.207 1.60826 109.902 1.60694C110.597 1.60826 111.263 1.88493 111.755 2.37637C112.246 2.8678 112.523 3.53395 112.524 4.22894C112.524 5.63494 111.346 6.85094 109.902 6.85094ZM107.85 28.701V9.70094H111.954V28.701H107.85ZM116.704 28.701V0.960938H120.808V28.701H116.704ZM147.446 9.70094H151.778L145.812 28.701H141.784L137.832 15.895L133.842 28.701H129.814L123.848 9.70094H128.18L131.866 22.811L135.856 9.70094H139.77L143.722 22.811L147.446 9.70094ZM156.87 6.85094C155.426 6.85094 154.248 5.63494 154.248 4.22894C154.249 3.53395 154.526 2.8678 155.017 2.37637C155.509 1.88493 156.175 1.60826 156.87 1.60694C157.565 1.60826 158.231 1.88493 158.723 2.37637C159.214 2.8678 159.491 3.53395 159.492 4.22894C159.492 5.63494 158.314 6.85094 156.87 6.85094ZM154.818 28.701V9.70094H158.922V28.701H154.818ZM173.666 9.20694C177.922 9.20694 180.962 12.095 180.962 17.035V28.701H176.858V17.453C176.858 14.565 175.186 13.045 172.602 13.045C169.904 13.045 167.776 14.641 167.776 18.517V28.701H163.672V9.70094H167.776V12.133C169.03 10.157 171.082 9.20694 173.666 9.20694ZM200.418 2.10094H204.522V28.701H200.418V25.965C198.974 27.979 196.732 29.195 193.768 29.195C188.6 29.195 184.306 24.825 184.306 19.201C184.306 13.539 188.6 9.20694 193.768 9.20694C196.732 9.20694 198.974 10.423 200.418 12.399V2.10094ZM194.414 25.281C197.834 25.281 200.418 22.735 200.418 19.201C200.418 15.667 197.834 13.121 194.414 13.121C190.994 13.121 188.41 15.667 188.41 19.201C188.41 22.735 190.994 25.281 194.414 25.281ZM218.278 29.195C212.54 29.195 208.246 24.825 208.246 19.201C208.246 13.539 212.54 9.20694 218.278 9.20694C222.002 9.20694 225.232 11.145 226.752 14.109L223.218 16.161C222.382 14.375 220.52 13.235 218.24 13.235C214.896 13.235 212.35 15.781 212.35 19.201C212.35 22.621 214.896 25.167 218.24 25.167C220.52 25.167 222.382 23.989 223.294 22.241L226.828 24.255C225.232 27.257 222.002 29.195 218.278 29.195ZM233.592 14.945C233.592 18.403 243.814 16.313 243.814 23.343C243.814 27.143 240.508 29.195 236.404 29.195C232.604 29.195 229.868 27.485 228.652 24.749L232.186 22.697C232.794 24.407 234.314 25.433 236.404 25.433C238.228 25.433 239.634 24.825 239.634 23.305C239.634 19.923 229.412 21.823 229.412 15.021C229.412 11.449 232.49 9.20694 236.366 9.20694C239.482 9.20694 242.066 10.651 243.396 13.159L239.938 15.097C239.254 13.615 237.924 12.931 236.366 12.931C234.884 12.931 233.592 13.577 233.592 14.945ZM251.11 14.945C251.11 18.403 261.332 16.313 261.332 23.343C261.332 27.143 258.026 29.195 253.922 29.195C250.122 29.195 247.386 27.485 246.17 24.749L249.704 22.697C250.312 24.407 251.832 25.433 253.922 25.433C255.746 25.433 257.152 24.825 257.152 23.305C257.152 19.923 246.93 21.823 246.93 15.021C246.93 11.449 250.008 9.20694 253.884 9.20694C257 9.20694 259.584 10.651 260.914 13.159L257.456 15.097C256.772 13.615 255.442 12.931 253.884 12.931C252.402 12.931 251.11 13.577 251.11 14.945Z" fill="white"/>
</g>
<defs>
<clipPath id="clip0_83_30">
<rect width="262" height="33" fill="white"/>
</clipPath>
</defs>
</svg>
