<svg xmlns="http://www.w3.org/2000/svg" version="1.1" xmlns:xlink="http://www.w3.org/1999/xlink" width="26" height="26"><svg width="26" height="26" viewBox="0 0 26 26" fill="none" xmlns="http://www.w3.org/2000/svg">
<g filter="url(#filter0_f_3_7)">
<path fill-rule="evenodd" clip-rule="evenodd" d="M15.6539 1.28849C15.5949 1.27752 15.4089 1.24163 15.2407 1.20869C13.3081 0.830313 11.1437 0.970432 9.24642 1.59673C8.02562 1.99975 6.68393 2.7111 5.66534 3.4954C4.07726 4.71827 2.83679 6.31428 1.96886 8.25146C1.8844 8.43994 1.72878 8.89611 1.54838 9.48394C1.36799 10.0718 1.24093 10.5367 1.20512 10.7401C0.785032 13.1257 1.00918 15.3598 1.88698 17.5363C2.10403 18.0744 2.68576 19.1713 3.00945 19.6528C4.3188 21.6005 6.04262 23.0395 8.25332 24.0303C8.65561 24.2106 10.308 24.718 10.7422 24.7945C13.1279 25.215 15.362 24.9912 17.5383 24.1138C18.0763 23.8969 19.1731 23.3154 19.6546 22.9918C21.6021 21.6828 23.0408 19.9593 24.0311 17.7488C24.1156 17.5603 24.2712 17.1041 24.4516 16.5163C24.632 15.9284 24.7591 15.4635 24.7949 15.2601C25.215 12.8745 24.9908 10.6404 24.113 8.4639C23.896 7.92582 23.3142 6.82891 22.9905 6.34737C21.7058 4.43631 20.0384 3.0281 17.8751 2.02696C17.5786 1.88971 15.9168 1.33723 15.6539 1.28849ZM18.0777 4.05348C19.8503 4.94666 21.293 6.37422 22.2591 8.19099C22.814 9.23457 23.1372 10.1843 23.333 11.3464C23.6011 12.9376 23.4938 14.5115 23.0094 16.0897C22.5069 17.7271 21.7153 19.0618 20.5044 20.313C19.3473 21.5086 17.7843 22.4676 16.1832 22.9642C13.7084 23.7317 11.075 23.5475 8.83554 22.45C7.38137 21.7374 6.18966 20.606 6.03047 19.787C5.97698 19.5117 6.01264 19.322 6.15745 19.1117C6.36327 18.8128 6.60992 18.642 7.88554 17.915C9.36691 17.0707 10.276 16.3798 11.2137 15.3855C11.9589 14.5954 12.4144 13.9746 12.9398 13.0331C14.1284 10.903 14.569 8.90142 14.4613 6.12214C14.4075 4.73287 14.415 4.37475 14.5042 4.08399C14.6781 3.51749 16.2112 3.43441 16.2112 3.43441C16.6226 3.49143 17.6163 3.82103 18.0777 4.05348ZM12.2307 3.78047C13.419 4.63185 14.0746 6.72082 13.8769 9.02537C13.8115 9.78669 13.7528 10.0683 13.4613 11.0183C13.177 11.9446 13.0736 12.1998 12.7202 12.847C12.1012 13.9809 11.0538 15.1539 9.94033 15.9602C8.20467 17.2171 6.19054 17.7468 4.90955 17.2834C4.0047 16.9561 3.36376 16.1478 2.964 14.83C2.59301 13.6071 2.5462 12.1511 2.83078 10.6856C2.94121 10.1169 3.29605 9.01674 3.53404 8.50511C4.76486 5.85916 7.38394 3.75706 9.93194 3.37006C10.6263 3.2646 11.0554 3.29195 11.6105 3.47702C11.932 3.58418 12.0099 3.62231 12.2307 3.78047Z" fill="white"></path>
</g>
<defs>
<filter id="SvgjsFilter1046" x="0" y="0" width="26" height="26" filterUnits="userSpaceOnUse" color-interpolation-filters="sRGB">
<feFlood flood-opacity="0" result="BackgroundImageFix"></feFlood>
<feBlend mode="normal" in="SourceGraphic" in2="BackgroundImageFix" result="shape"></feBlend>
<feGaussianBlur stdDeviation="0.5" result="effect1_foregroundBlur_3_7"></feGaussianBlur>
</filter>
</defs>
</svg><style>@media (prefers-color-scheme: light) { :root { filter: contrast(1) brightness(0.1); } }
@media (prefers-color-scheme: dark) { :root { filter: none; } }
</style></svg>