<svg xmlns="http://www.w3.org/2000/svg" version="1.1" xmlns:xlink="http://www.w3.org/1999/xlink" width="24" height="24"><svg width="24" height="24" viewBox="0 0 24 24" fill="none" xmlns="http://www.w3.org/2000/svg">
<path fill-rule="evenodd" clip-rule="evenodd" d="M12 0C13.0265 0 14.0227 0.129607 14.9736 0.37207L19 9V2.25586C22.0271 4.43433 24 7.98574 24 12C24 18.6274 18.6274 24 12 24C10.9731 24 9.97671 23.8696 9.02539 23.627L5 15V21.7432C1.97313 19.5647 0 16.0141 0 12C0 5.37258 5.37258 0 12 0ZM12 5C8.13401 5 5 8.13401 5 12C5 15.866 8.13401 19 12 19C15.866 19 19 15.866 19 12C19 8.13401 15.866 5 12 5Z" fill="white"></path>
</svg><style>@media (prefers-color-scheme: light) { :root { filter: contrast(1) brightness(0.1); } }
@media (prefers-color-scheme: dark) { :root { filter: none; } }
</style></svg>